<?xml version="1.0" encoding="utf-8"?>
<!-- Svg Vector Icons : http://www.onlinewebfonts.com/icon -->
<!DOCTYPE svg PUBLIC "-//W3C//DTD SVG 1.1//EN" "http://www.w3.org/Graphics/SVG/1.1/DTD/svg11.dtd">
<svg version="1.1" xmlns="http://www.w3.org/2000/svg" xmlns:xlink="http://www.w3.org/1999/xlink" x="0px" y="0px" viewBox="0 0 256 256" enable-background="new 0 0 256 256" xml:space="preserve">
<metadata> Svg Vector Icons : http://www.onlinewebfonts.com/icon </metadata>
<g><g><g><path fill="#000000" d="M134.9,10.6c-3,1-5.7,4-6.4,7.1c-0.3,1.5-0.5,8-0.5,17.1v14.8H78.9H29.7v9.7v9.7h49.1h49.1l0.1,16l0.1,16.1l1.3,2.2c1.4,2.5,3,3.7,5.6,4.5c1.3,0.4,9.1,0.5,28.4,0.4l26.5-0.1l1.9-1.3c1.1-0.7,2.5-2.1,3.2-3.2l1.3-1.9l0.1-41.8l0.1-41.8l-1.2-2.5c-1-1.9-1.8-2.9-3.6-3.9l-2.3-1.4L163.3,10C141.5,9.9,136.6,10,134.9,10.6z M177.4,59v29.8h-15h-15V59V29.3h15h15V59z"/><path fill="#000000" d="M114.6,119c-3.1,1.3-6,5.1-6,7.8v1.2l-35.9,0.1l-35.9,0.1l-2.3,1.4c-3.9,2.4-5.8,7.6-4.1,11.5c0.3,0.8,5.4,8.7,11.3,17.4c8.1,12.2,11,16.2,12.3,17c1.4,0.9,6.4,1.8,28.2,5.5l26.5,4.4l-0.1,2.8l-0.1,2.8l-18,9c-16.1,8.1-18.1,9.3-19.3,10.9c-1.9,2.7-2.1,4.4-2.2,15.6c0,12.2,0.3,13.9,3.4,16.7c1.5,1.4,2.6,2,4.5,2.4c1.8,0.4,22.3,0.5,72.4,0.4l69.9-0.1l2.3-1.4c1.7-1.1,2.6-2,3.5-3.9l1.3-2.5v-11.5c0-8.7-0.2-12-0.7-13.4c-1.3-3.7-2.5-4.4-26.3-13.9l-22.1-8.9V187v-3.3l22.1-8.9c20.1-8,22.3-9,24.1-10.7c1.1-1.1,2.1-2.6,2.4-3.7c0.7-2.4,0.7-32.9,0-35.3c-0.6-2.4-3.9-5.6-6.2-6.3c-1.3-0.4-17.1-0.5-52.6-0.5C122.7,118.3,116,118.4,114.6,119z M206.9,144.3v6.6l-22.2,8.9c-12.4,5-22.8,9.4-23.5,10.1c-0.8,0.6-1.8,2-2.4,3c-1,1.8-1,2.4-1,14.1s0,12.3,1,14.1c0.6,1.1,1.6,2.4,2.4,3c0.7,0.6,11.1,5.1,23.5,10.1l22.2,8.9v1.8v1.8l-59.1-0.1l-59.2-0.1l-0.1-1.9l-0.1-1.9l17.7-8.9c9.7-4.8,18.2-9.3,18.7-9.8c0.6-0.5,1.6-1.8,2.1-2.8c1-1.8,1-2.1,1.2-32.7l0.1-30.8h39.4h39.4L206.9,144.3L206.9,144.3z M108.6,156.6v9.3l-1.2-0.3c-0.7-0.1-10.1-1.7-20.9-3.5c-10.8-1.8-20.1-3.3-20.6-3.5c-0.7-0.2-2.2-1.9-4.3-5.1c-1.8-2.7-3.4-5.2-3.6-5.5c-0.2-0.6,3-0.7,25.2-0.7h25.4V156.6z"/></g></g></g>
</svg>